<?xml version="1.0" encoding="UTF-8" standalone="no"?>
<!DOCTYPE svg PUBLIC "-//W3C//DTD SVG 1.1//EN" "http://www.w3.org/Graphics/SVG/1.1/DTD/svg11.dtd">
<svg width="100%" height="100%" viewBox="0 0 32 32" version="1.1" xmlns="http://www.w3.org/2000/svg" xmlns:xlink="http://www.w3.org/1999/xlink" xml:space="preserve" xmlns:serif="http://www.serif.com/" style="fill-rule:evenodd;clip-rule:evenodd;stroke-linejoin:round;stroke-miterlimit:2;">
    <g id="chatbox" transform="matrix(0.115279,0,0,0.115279,0,0)">
        <rect x="0" y="0" width="277.587" height="277.587" style="fill:none;"/>
        <clipPath id="_clip1">
            <rect x="0" y="0" width="277.587" height="277.587"/>
        </clipPath>
        <g clip-path="url(#_clip1)">
            <g transform="matrix(1.76391,0,0,1.62659,51.8073,69.3843)">
                <rect x="-29.371" y="-42.656" width="157.371" height="170.656" style="fill:none;"/>
            </g>
            <g transform="matrix(1.85884,0,0,2.06022,19.8277,-14.7468)">
                <rect x="8" y="24" width="112" height="80"/>
            </g>
            <g transform="matrix(2.16865,0,0,2.16865,17.3492,-1.19904e-13)">
                <path d="M24,80L24,112L56,80L24,80Z"/>
            </g>
            <g transform="matrix(8.6746,0,0,8.6746,0,0)">
                <rect x="0" y="0" width="32" height="32" style="fill:none;"/>
            </g>
        </g>
    </g>
</svg>
